<svg width="65" height="22" xmlns="http://www.w3.org/2000/svg" font-family="Arial, sans-serif" font-size="11" font-weight="bold">
  <rect width="65" height="22" fill="#1DA1F2" rx="2"/>
  <path 
    d="M22.46,6C21.78,6.33,21.04,6.56,20.27,6.69C21.09,6.21,21.7,5.49,21.95,4.6C21.19,5.05,20.38,5.38,19.5,5.58C18.79,4.82,17.76,4.3,16.6,4.3C14.4,4.3,12.6,6.1,12.6,8.3C12.6,8.61,12.63,8.91,12.7,9.2C9.24,9.03,6.2,7.43,4.1,5.08C3.74,5.78,3.5,6.6,3.5,7.5C3.5,8.9,4.2,10.1,5.3,10.8C4.6,10.78,4,10.6,3.5,10.3V10.33C3.5,12.3,4.9,13.9,6.9,14.3C6.5,14.4,6.1,14.5,5.7,14.5C5.4,14.5,5.1,14.47,4.9,14.43C5.4,16,6.9,17.1,8.6,17.1C7.2,18.2,5.4,18.8,3.5,18.8C3.1,18.8,2.8,18.78,2.5,18.74C4.1,19.8,6.1,20.5,8.2,20.5C16.6,20.5,20.6,13.6,20.6,7.7V7.18C21.4,6.6,22,5.86,22.46,5.03V5.03" 
    fill="white" 
    transform="translate(4, 3) scale(0.6)"
  />
  <text x="43" y="15" fill="white" text-anchor="middle">Tweet</text>
</svg>
